<svg xmlns="http://www.w3.org/2000/svg" width="15" height="15" viewBox="0 0 15 15" fill="none"><path d="M7.29985 0.177796C7.328 -0.0592654 7.672 -0.0592654 7.70015 0.177796L7.93612 2.16653C8.24082 4.73452 10.2655 6.75918 12.8335 7.06388L14.8222 7.29985C15.0593 7.328 15.0593 7.672 14.8222 7.70015L12.8335 7.93612C10.2655 8.24082 8.24082 10.2655 7.93612 12.8335L7.70015 14.8222C7.672 15.0593 7.328 15.0593 7.29985 14.8222L7.06388 12.8335C6.75918 10.2655 4.73452 8.24082 2.16653 7.93612L0.177796 7.70015C-0.0592654 7.672 -0.0592654 7.328 0.177796 7.29985L2.16653 7.06388C4.73452 6.75918 6.75918 4.73452 7.06388 2.16653L7.29985 0.177796Z" fill="#DADADA"></path></svg>